<svg xmlns="http://www.w3.org/2000/svg" viewBox="0 0 147.36 60.11"><defs><style>.cls-1{fill:#303030;}.cls-2{fill:#565656;}</style></defs><g id="Capa_2" data-name="Capa 2"><g id="Capa_1-2" data-name="Capa 1"><path class="cls-1" d="M73.16,0C65,1.24,57,4.4,49.51,7.79a129.8,129.8,0,0,0-22.35,12.5,31.61,31.61,0,0,0-6.92,6.18.7.7,0,0,0,.61,1.05c4.54-.48,9.07-1.75,13.52-2.72,6.13-1.33,12.27-2.71,18.47-3.73,1.88-.3,4.16-.87,6-.57l-.17-1.29C46.26,25.32,34.1,32.88,24.08,42.56a.71.71,0,0,0,.68,1.17,42.37,42.37,0,0,0,7.08-2.54c3.48-1.45,6.91-3,10.32-4.62,7.53-3.52,15-7.2,22.49-10.75,2.79-1.32,5.58-2.69,8.46-3.78l-.54-1.28L66,24.42l.71,1.21A65.19,65.19,0,0,0,79.4,14.56a95.62,95.62,0,0,0,9-12.38c.45-.72-.52-1.33-1.11-.85C78.82,8.25,73.12,17.8,65.93,25.89a.7.7,0,0,0,.85,1.1q6.85-3.94,14-7.3L80,18.59l-9.71,7.56c-.58.45.06,1.34.68,1.17A38.05,38.05,0,0,0,83.1,21.66l-1-.42c.68,2.55-3.17,5-4.8,6.38-2.11,1.84-4.24,3.65-6.41,5.43q-6.51,5.36-13.35,10.34C48.93,49.64,39.94,55.9,29.56,58.74l.69,1.17C42.32,49,57.28,41.83,72,35.22c4.13-1.86,8.27-3.67,12.41-5.52.75-.33.2-1.45-.54-1.28.26-.06.61.61.56.62s.15-.28.21-.33a7,7,0,0,0,.77-.85,21.17,21.17,0,0,1,3.15-2.59,19.76,19.76,0,0,1,9.8-3.68l-.49-1.2-4.65,4.26c-.57.51.05,1.27.68,1.17A71,71,0,0,0,103,23.69l-.54-1.28c-12.1,7.69-26.47,9.27-40,12.81-12.88,3.35-25.67,7.22-38.88,9.1a77.26,77.26,0,0,1-22.67.36L1,46C17.53,35.74,36.76,30.14,55.55,25.88a158.22,158.22,0,0,1,30.32-4.12c10.2-.3,20.45.35,30.6-.93,9.5-1.2,18.91-4.1,26.4-10.27.69-.58-5.39,2.24-7.73,3.47C120.72,21.58,102.85,20,87,20.33c-19.66.45-39.21,5.24-57.81,11.4a134.7,134.7,0,0,0-28.85,13C-.13,45-.13,45.94.5,46c13.56,2.11,27.52-.6,40.69-3.78,6.49-1.57,12.91-3.37,19.36-5.09,6.2-1.65,12.46-2.9,18.7-4.37,8.35-1.95,16.64-4.53,23.92-9.17a.7.7,0,0,0-.54-1.28,71.24,71.24,0,0,1-9.11,2.13l.68,1.17,4.65-4.25a.71.71,0,0,0-.5-1.2,22.05,22.05,0,0,0-12.46,5.34,9.37,9.37,0,0,0-2.7,2.84c-.39.83.08,1.62,1,1.4l-.54-1.28c-15,6.67-30.26,13-43.87,22.2a95.38,95.38,0,0,0-10.57,8.23.71.71,0,0,0,.69,1.17c8.56-2.34,16.19-7,23.41-12C61,42.75,68.38,37,75.48,31c2-1.72,4.11-3.42,6-5.27,1.34-1.31,2.45-2.94,1.93-4.87a.7.7,0,0,0-1-.42A37,37,0,0,1,70.57,26l.68,1.17L81,19.58c.68-.52-.18-1.42-.85-1.1q-7.17,3.35-14,7.3l.85,1.1c7.19-8.09,12.9-17.63,21.34-24.56l-1.11-.85c-5.65,9-12.27,17-21.18,23a.7.7,0,0,0,.71,1.21L73.28,22c.68-.38.22-1.57-.54-1.28C66.75,23,61,26,55.25,28.77,47.8,32.36,40.37,36,32.78,39.28a49.41,49.41,0,0,1-8.39,3.1l.68,1.17C35,34,47.07,26.49,59.43,20.43a.71.71,0,0,0-.16-1.29,17.43,17.43,0,0,0-5,.31c-2.82.4-5.63.94-8.43,1.5-6.23,1.25-12.43,2.66-18.65,4-2.08.44-4.19,1-6.3,1.19l.61,1.05a28.63,28.63,0,0,1,6.05-5.41,103.1,103.1,0,0,1,9.7-6.16,146.39,146.39,0,0,1,23.84-11C65.11,3.23,74.05-.13,73.16,0Z"/><path class="cls-2" d="M146.15,8.79a1.25,1.25,0,0,0,0-2.5,1.25,1.25,0,0,0,0,2.5Z"/></g></g></svg>