<svg xmlns="http://www.w3.org/2000/svg" viewBox="0 0 105.75 56.29"><defs><style>.cls-1{fill:#e3292a;fill-rule:evenodd;}</style></defs><g id="Capa_2" data-name="Capa 2"><g id="Capa_1-2" data-name="Capa 1"><path class="cls-1" d="M15.25,46.79A4.47,4.47,0,0,1,15,44.92c0-3.28,1.56-13.17,3.48-15.1a.78.78,0,0,0,.06-.61,19.51,19.51,0,0,1,3.13.64c-1.51,2.84-3,9.28-3,14.06,0,1,.58,1.53,2.13,1.53a.79.79,0,0,0,.87-.66c0-2.68,1.92-8.78,3.19-8.78.72,0-1.09,2.79-1.09,6.79,0,1.09.66,2.65,2.18,2.65,1.22,0,2.4-2,3.26-3.95.05-.1.09-.21.13-.31l-.13.31c.07,2.2,1.13,4,3.73,4,3.34,0,5.32-5.61,5.81-7.13a.31.31,0,0,0-.29-.4.27.27,0,0,0-.25.14c-.38.72-2.05,3.59-4.69,3.59C32.43,41.67,32,40.93,32,40a1.05,1.05,0,0,0,.78.29c3.77,0,5.41-6.91,1.76-6.91-2.09,0-4,2.4-4.8,5.07h0c-.5.85-1.56,2.51-2.31,2.51-1.44,0,.84-4,.84-5.44s-.78-2.18-2-2.18c-2.21,0-3.65,3.22-4.4,5.58a30.72,30.72,0,0,1,2.42-8.34c1.33.36,2.39.65,2.5.65a1.58,1.58,0,0,1,1,.36,2.79,2.79,0,0,1,.63.7c.42,0,1-.87,1.18-1.83a2.39,2.39,0,0,0-.34-2.15,1.71,1.71,0,0,0-.65-.39A24.09,24.09,0,0,0,21.77,26c-5.15-.63-12.35.23-13,3a3,3,0,0,0,.87,2.6c.14-.61,4.63-2.14,6.69-2.28-2,2.27-4.69,10.59-4.69,16a2.67,2.67,0,0,0,2.79,2.19A.81.81,0,0,0,15.25,46.79ZM34,35.69v0c1.35,0-.2,3.16-1.29,3.16a.67.67,0,0,1-.55-.25C32.43,37.16,33.29,35.69,34,35.69Zm-3.51,2.62c0,.06,0,.13-.07.2s.05-.15.07-.21a.29.29,0,0,0,0-.16A.25.25,0,0,1,30.44,38.31Zm-.29-.4v0h0v0Zm-.26.17,0,0,0,0,0,.06S29.89,38.09,29.89,38.08Z"/><path class="cls-1" d="M103.48,34.86h0c1.21,0,1.5-2.39-.37-2.39a1.43,1.43,0,0,0-1.3.69l-2.8,5C98.48,39,97.68,40,97.1,40c-1.27,0-.55-4.28,1-5.86a1,1,0,0,0,0-.32c-.32-2.36-4.37-1.21-5.38-1.21a1.19,1.19,0,0,1-1.24-.78c-.89,0-.74,1.85.09,2.74-.45,2.64-1.2,4.23-2.06,5.12a1.08,1.08,0,0,1-.64.31c-1.27,0-.55-4.83,1-6.41,0,0,.15-1.09-1.32-1.09-.69,0-1.33.54-1.87,1.46.06-.74-.15-1.58-1.32-1.58-1.92,0-4.49,2-5.47,5.57a16.05,16.05,0,0,1-2.3,3.84c.49-3.48.72-6.94,2-8.2,0,0,.15-1.09-1.32-1.09-.81,0-1.44.66-2,1.69.12-.77,0-1.81-1.29-1.81-1.93,0-4.52,2-5.49,5.65-.56.87-1.38,2-2,2-1.44,0,1.09-10,2.59-11.45,0,0-.06-1.09-2-1.09-.92,0-2,2.68-2.82,5.73a1.15,1.15,0,0,0-1.26-.81c-1.67,0-3.83,1.5-5,4.25a.35.35,0,0,0-.26.18c-.49,1-2.87,5.27-6.24,5.27-3.77,0-1.75-5.36.89-5.36.72,0,1.33-1.66.49-1.66-3.85-.64-3-6.65.6-6.65,2,0,2.1,2.91.32,2.91-.6,0-.49-.87.12-.87.28-.28.17-1.06-.81-1.06-2.24,0-2.76,4.23.63,4.23,4.72,0,5.64-8.43-.54-8.43-4.35,0-7.45,6.33-3.89,9.9-4.92,3.1-5,11.53,1.3,11.53l-.06,0c3.25,0,5.37-3.21,6.61-6,0,.16,0,.32,0,.48,0,2.18,1,3.45,2.41,3.45s2.45-1.67,3.17-3.57v.35c0,2.47,1.41,3.19,2.39,3.19s2.12-1.69,3-3.47v.05c0,2.18,1,3.45,2.42,3.45,1.2,0,2.13-1.18,2.82-2.67-.18.92-.35,1.84-.55,2.67a6.05,6.05,0,0,1-1.93.32c-4.2,0-4.43,5.92-.37,5.92,3.39,0,4.77-2.85,5.52-6.27a17.46,17.46,0,0,0,2.47-4c0,.2,0,.41,0,.62,0,2.18,1,3.45,2.41,3.45s2.45-1.64,3.17-3.51v.35c0,2.47,1.41,3.19,2.39,3.19.71,0,1.44-.8,2.1-1.87a10.74,10.74,0,0,0,1.94-3.08A24.09,24.09,0,0,0,93,35.08a15.45,15.45,0,0,0,1.56-.14,14.79,14.79,0,0,0-1.23,6.45c0,2.47,1.41,3.19,2.38,3.19s1.73-1.14,2.49-2.52c.33,1.36,1.43,2.46,3.7,2.46,2,0,3.82-1.55,3.82-4.51C105.75,37.91,103.48,35.63,103.48,34.86ZM64.59,35.92v0C63.9,37.53,62.75,40,62.08,40c-1.12,0,.09-6,2.13-6C64.87,34,64.79,35.06,64.59,35.92ZM71.38,49v0c-1,0-.18-2.39,1.92-2.42C72.81,48.09,72.21,49,71.38,49Zm4.11-13.15v0C74.8,37.5,73.65,40,73,40c-1.12,0,.08-6,2.13-6C75.78,34,75.69,35,75.49,35.89ZM85.88,36v0c-.69,1.64-1.85,4.11-2.51,4.11-1.12,0,.09-6,2.13-6C86.16,34.05,86.08,35.12,85.88,36Zm16,4.57,0,.06a.91.91,0,1,1-.17-1.81c.69,0,.69-1.79-.78-1.79h-.17l.92-1.52c.37,1.18,1.21,2.1,1.21,3.71C102.94,40,102.59,40.55,101.9,40.55Z"/><path class="cls-1" d="M81.27,47.71a2.29,2.29,0,0,0-.37-.12,1.89,1.89,0,0,0-1.17.1,1.65,1.65,0,0,0-.57.39,1.54,1.54,0,0,0-.36.55,1.65,1.65,0,0,0-.13.66,1.29,1.29,0,0,0,.09.51,1.31,1.31,0,0,0,.23.36,1.36,1.36,0,0,0,.34.23,2.43,2.43,0,0,0,.37.16l.38.14a1.66,1.66,0,0,1,.33.15,1,1,0,0,1,.24.22.67.67,0,0,1,.08.33,1.07,1.07,0,0,1-.07.41.76.76,0,0,1-.2.32.8.8,0,0,1-.32.2,1.09,1.09,0,0,1-.42.07,1,1,0,0,1-.45-.08,1.33,1.33,0,0,1-.31-.18L78.75,52a.27.27,0,0,0-.17-.08.2.2,0,0,0-.11,0,.39.39,0,0,0-.1.08l-.3.41a2.07,2.07,0,0,0,.3.29,2.21,2.21,0,0,0,.36.23,1.88,1.88,0,0,0,.42.14,2.31,2.31,0,0,0,.46.05,2.09,2.09,0,0,0,.81-.15,1.66,1.66,0,0,0,.61-.42,1.77,1.77,0,0,0,.39-.61,2.08,2.08,0,0,0,.14-.75,1.14,1.14,0,0,0-.09-.48,1,1,0,0,0-.24-.34,1.27,1.27,0,0,0-.33-.24l-.38-.17-.38-.15a2.16,2.16,0,0,1-.34-.16.93.93,0,0,1-.23-.21.54.54,0,0,1-.09-.31.93.93,0,0,1,.06-.34.64.64,0,0,1,.18-.27,1,1,0,0,1,.29-.19,1.25,1.25,0,0,1,.4-.06,1.08,1.08,0,0,1,.38.06,1.26,1.26,0,0,1,.26.14l.19.13a.21.21,0,0,0,.14.07.14.14,0,0,0,.11,0,.41.41,0,0,0,.1-.09l.25-.36a1.48,1.48,0,0,0-.25-.25A1.73,1.73,0,0,0,81.27,47.71Z"/><polygon class="cls-1" points="87.15 49.99 84.69 49.99 84.99 47.6 84.13 47.6 83.46 53.04 84.32 53.04 84.62 50.61 87.08 50.61 86.78 53.04 87.63 53.04 88.31 47.6 87.45 47.6 87.15 49.99"/><path class="cls-1" d="M94.57,48.23a1.92,1.92,0,0,0-.69-.5,2.1,2.1,0,0,0-.92-.19,2.9,2.9,0,0,0-.79.11,2.92,2.92,0,0,0-1.28.79,3.09,3.09,0,0,0-.44.63,3.7,3.7,0,0,0-.28.77,3.46,3.46,0,0,0-.1.87,2.91,2.91,0,0,0,.15.95,2.37,2.37,0,0,0,.44.76,2,2,0,0,0,.7.5,2.25,2.25,0,0,0,.92.18,2.6,2.6,0,0,0,.79-.11,2.67,2.67,0,0,0,.69-.3,2.43,2.43,0,0,0,.58-.48,2.79,2.79,0,0,0,.45-.63,3.83,3.83,0,0,0,.28-.76,4.14,4.14,0,0,0,.1-.87A2.76,2.76,0,0,0,95,49,2.14,2.14,0,0,0,94.57,48.23ZM94.15,51a2.18,2.18,0,0,1-.39.76,1.69,1.69,0,0,1-1.39.66,1.46,1.46,0,0,1-.6-.12,1.37,1.37,0,0,1-.45-.35,1.72,1.72,0,0,1-.28-.54,2.52,2.52,0,0,1-.1-.7,3.45,3.45,0,0,1,.14-1,2.72,2.72,0,0,1,.39-.76,1.7,1.7,0,0,1,.61-.49,1.79,1.79,0,0,1,.78-.17,1.46,1.46,0,0,1,.6.12,1.17,1.17,0,0,1,.45.34,1.5,1.5,0,0,1,.28.55,2.15,2.15,0,0,1,.1.7A3.45,3.45,0,0,1,94.15,51Z"/><path class="cls-1" d="M103.23,47.66a.29.29,0,0,0-.11.14l-1.4,3.56c0,.08,0,.15-.08.24s0,.17-.08.26a2.11,2.11,0,0,0,0-.26l0-.24-.61-3.56a.28.28,0,0,0-.09-.14.26.26,0,0,0-.18-.06h-.19a.29.29,0,0,0-.19.06.31.31,0,0,0-.12.14l-1.48,3.56-.09.24c0,.09-.06.18-.09.27,0-.09,0-.18,0-.27s0-.16,0-.24L97.9,47.8a.22.22,0,0,0-.08-.15.3.3,0,0,0-.18,0H97L97.87,53h.76l1.65-4,.06-.14a1.09,1.09,0,0,1,0-.17,1,1,0,0,1,0,.17c0,.05,0,.1,0,.14l.67,4h.78l2.22-5.44h-.67A.36.36,0,0,0,103.23,47.66Z"/><path class="cls-1" d="M29.69,25.83l3-4.47a6.42,6.42,0,0,0,1.76,0A5.55,5.55,0,0,0,36,21a6.8,6.8,0,0,0,3.13-2.77,6.93,6.93,0,0,0,1-4.38,7.23,7.23,0,0,0-.51-1.91,8.1,8.1,0,0,0-3.37-3.77,11,11,0,0,0-4.57-1.53A6.39,6.39,0,0,0,30.91,5,10.44,10.44,0,0,0,25.3.66,10.59,10.59,0,0,0,18.17.59a9.79,9.79,0,0,0-3.71,2.56,6.43,6.43,0,0,0-.91,1.27A7.85,7.85,0,0,0,6.06,6.5a9.75,9.75,0,0,0-2.39,5.05,6.18,6.18,0,0,0-.65.21A4.89,4.89,0,0,0,.64,13.93a5.08,5.08,0,0,0-.61,3A4.57,4.57,0,0,0,.32,18a4.38,4.38,0,0,0,2.87,2.54,6.21,6.21,0,0,0,4.15-.29c2.13-.88,7-2.2,8-2.47a9.73,9.73,0,0,0,4-.15,7.92,7.92,0,0,0,2.32-1,7,7,0,0,0,6.11,1.21,8.46,8.46,0,0,0,2.64,2.66l.51.28-1.84,2.83a25.21,25.21,0,0,0-19.6,0,5.69,5.69,0,0,0-3.28-2.05,14.37,14.37,0,0,1,2.34,4.26C16.24,22.85,22.61,23,29.69,25.83ZM29.44,17a3.87,3.87,0,0,0,1.19-3.56l-.53.73a5.65,5.65,0,0,1-1.5,1.34l-.66.35a5.09,5.09,0,0,1-4.83-.5c1-1.41,1-3.47,0-4.17l-.22.87a5.08,5.08,0,0,1-.95,2,5.48,5.48,0,0,1-3,1.89,8,8,0,0,1-3.91,0,8.07,8.07,0,0,1-3-1.49l-.71-.55a3.26,3.26,0,0,0,1.33,2.83c-1.93.55-4.52,1.32-6,1.92a4.45,4.45,0,0,1-2.95.24A2.67,2.67,0,0,1,2,17.36a2.88,2.88,0,0,1-.17-.64,3.31,3.31,0,0,1,.4-1.93,3,3,0,0,1,1.48-1.36,3.41,3.41,0,0,0,1.8,2.51l-.17-.87s-.87-4.42,2-7.31A6,6,0,0,1,13,6.12a2.54,2.54,0,0,0,.81,2.23L14,7.48a7.45,7.45,0,0,1,1.74-3.13,8,8,0,0,1,3-2.09,8.74,8.74,0,0,1,5.9.08,8.65,8.65,0,0,1,4.66,3.58,6.18,6.18,0,0,1,.68,1.67l.11.59a4.52,4.52,0,0,1,0,1.23l-.16.88a2.82,2.82,0,0,0,1.65-1.88,9.14,9.14,0,0,1,3.61,1.28,6.51,6.51,0,0,1,2.65,2.94,5.63,5.63,0,0,1,.38,1.43,5.13,5.13,0,0,1-.71,3.25,5,5,0,0,1-2.29,2,3.78,3.78,0,0,1-1,.28A4.42,4.42,0,0,1,31.41,19,6.43,6.43,0,0,1,29.44,17Z"/><path class="cls-1" d="M64.11,49.37a121.51,121.51,0,0,0-43.29.37c-11.43,2.27-6.5,7.35,1.53,6.44a37.68,37.68,0,0,0,6.28-1.61,91.07,91.07,0,0,1,35.3-2.65c3.81.42,4.89-.1,4.81-.9C68.68,50.43,67.3,49.88,64.11,49.37Z"/></g></g></svg>