<svg xmlns="http://www.w3.org/2000/svg" viewBox="0 0 24.64 17.6"><defs><style>.cls-1{fill:#fff;}</style></defs><g id="Capa_2" data-name="Capa 2"><g id="Capa_1-2" data-name="Capa 1"><g id="Page-1"><g id="_005---Cake-Stand" data-name="005---Cake-Stand"><path id="Shape" class="cls-1" d="M7,15.73v.55c0,.47,2,1.32,5.28,1.32s5.28-.85,5.28-1.32v-.55a11.81,11.81,0,0,1-5.28,1A11.81,11.81,0,0,1,7,15.73Z"/><path id="Shape-2" data-name="Shape" class="cls-1" d="M14.08,13.29v.79a.44.44,0,0,1-.13.31,2.31,2.31,0,0,1-1.63.57,2.31,2.31,0,0,1-1.63-.57.44.44,0,0,1-.13-.31v-.79c-2.34.23-3.52.9-3.52,1.23s2,1.32,5.28,1.32S17.6,15,17.6,14.52,16.42,13.52,14.08,13.29Z"/><ellipse id="Oval" class="cls-1" cx="12.32" cy="3.52" rx="12.32" ry="3.52"/><path id="Shape-3" data-name="Shape" class="cls-1" d="M13.2,13.86V10.55H11.44v3.31A1.89,1.89,0,0,0,13.2,13.86Z"/><path id="Shape-4" data-name="Shape" class="cls-1" d="M0,5.18v1c0,1.56,4.45,3.29,11,3.5h0l1.31,0,1.31,0h0c6.55-.21,11-1.94,11-3.5v-1c-2,1.79-7.3,2.74-12.32,2.74S2,7,0,5.18Z"/></g></g></g></g></svg>